ply
format ascii 1.0
comment Created by Blender 2.77 (sub 0) - www.blender.org, source file: ''
element vertex 562
property float x
property float y
property float z
element face 576
property list uchar uint vertex_indices
end_header
-0.062198 0.157422 0.788287
0.006642 0.171115 0.788287
0.006642 0.161353 0.648315
-0.058462 0.148403 0.648315
-0.113655 0.111524 0.648315
-0.120558 0.118427 0.788287
-0.159552 0.060068 0.788287
-0.150533 0.056332 0.648315
-0.173245 -0.008772 0.788287
-0.163483 -0.008772 0.648315
-0.159552 -0.077612 0.788287
-0.150533 -0.073876 0.648315
-0.120558 -0.135972 0.788287
-0.113655 -0.129069 0.648315
-0.062198 -0.174966 0.788287
-0.058462 -0.165947 0.648315
0.006642 -0.188659 0.788287
0.006642 -0.178897 0.648315
0.075482 -0.174966 0.788287
0.071746 -0.165947 0.648315
0.133841 -0.135972 0.788287
0.126938 -0.129068 0.648315
0.172836 -0.077612 0.788287
0.163817 -0.073876 0.648315
0.186529 -0.008772 0.788287
0.176767 -0.008772 0.648315
0.172836 0.060068 0.788287
0.163817 0.056332 0.648315
0.133841 0.118427 0.788287
0.126938 0.111524 0.648315
0.075482 0.157422 0.788287
0.071746 0.148403 0.648315
0.057601 0.114253 0.538337
0.006642 0.124390 0.538337
0.100801 0.085388 0.538337
0.129667 0.042187 0.538337
0.139804 -0.008772 0.538337
0.129667 -0.059731 0.538337
0.100801 -0.102932 0.538337
0.057601 -0.131798 0.538337
0.006642 -0.141934 0.538337
-0.044317 -0.131798 0.538337
-0.087518 -0.102932 0.538337
-0.116384 -0.059731 0.538337
-0.126520 -0.008772 0.538337
-0.116384 0.042187 0.538337
-0.087518 0.085388 0.538337
-0.044317 0.114254 0.538337
0.006642 0.077545 0.475850
-0.026390 0.070974 0.475850
-0.054393 0.052263 0.475850
-0.073105 0.024260 0.475850
-0.079675 -0.008772 0.475850
-0.073105 -0.041804 0.475850
-0.054393 -0.069807 0.475850
-0.026390 -0.088519 0.475850
0.006642 -0.095089 0.475850
0.039674 -0.088519 0.475850
0.067677 -0.069807 0.475850
0.086388 -0.041804 0.475850
0.092959 -0.008772 0.475850
0.086388 0.024260 0.475850
0.067677 0.052263 0.475850
0.039674 0.070974 0.475850
0.023643 0.032272 0.446342
0.006642 0.035654 0.446342
0.038056 0.022642 0.446342
0.047686 0.008229 0.446342
0.051068 -0.008772 0.446342
0.047686 -0.025773 0.446342
0.038056 -0.040186 0.446342
0.023643 -0.049816 0.446342
0.006642 -0.053198 0.446342
-0.010359 -0.049816 0.446342
-0.024772 -0.040186 0.446342
-0.034402 -0.025773 0.446342
-0.037784 -0.008772 0.446342
-0.034402 0.008229 0.446342
-0.024772 0.022642 0.446342
-0.010359 0.032272 0.446342
0.006642 0.019284 0.435928
-0.004095 0.017149 0.435928
-0.013197 0.011067 0.435928
-0.019279 0.001965 0.435928
-0.021415 -0.008772 0.435928
-0.019279 -0.019509 0.435928
-0.013197 -0.028611 0.435928
-0.004095 -0.034693 0.435928
0.006642 -0.036829 0.435928
0.017379 -0.034693 0.435928
0.026481 -0.028611 0.435928
0.032563 -0.019509 0.435928
0.034698 -0.008772 0.435928
0.032563 0.001965 0.435928
0.026481 0.011067 0.435928
0.017379 0.017149 0.435928
0.014323 0.009773 0.418571
0.006642 0.011301 0.418571
0.020836 0.005422 0.418571
0.025187 -0.001090 0.418571
0.026715 -0.008772 0.418571
0.025187 -0.016454 0.418571
0.020836 -0.022966 0.418571
0.014323 -0.027317 0.418571
0.006642 -0.028845 0.418571
-0.001040 -0.027317 0.418571
-0.007552 -0.022966 0.418571
-0.011903 -0.016454 0.418571
-0.013431 -0.008772 0.418571
-0.011903 -0.001090 0.418571
-0.007552 0.005422 0.418571
-0.001040 0.009773 0.418571
0.006642 0.008894 0.393691
-0.000119 0.007549 0.393691
-0.005850 0.003720 0.393691
-0.009679 -0.002012 0.393691
-0.011024 -0.008772 0.393691
-0.009679 -0.015533 0.393691
-0.005850 -0.021264 0.393691
-0.000119 -0.025093 0.393691
0.006642 -0.026438 0.393691
0.013402 -0.025093 0.393691
0.019133 -0.021264 0.393691
0.022963 -0.015533 0.393691
0.024308 -0.008772 0.393691
0.022963 -0.002012 0.393691
0.019133 0.003720 0.393691
0.013402 0.007549 0.393691
0.012396 0.005121 0.345713
0.006642 0.006266 0.345713
0.017275 0.001861 0.345713
0.020535 -0.003017 0.345713
0.021679 -0.008772 0.345713
0.020535 -0.014527 0.345713
0.017275 -0.019405 0.345713
0.012396 -0.022665 0.345713
0.006642 -0.023810 0.345713
0.000887 -0.022665 0.345713
-0.003991 -0.019405 0.345713
-0.007251 -0.014527 0.345713
-0.008396 -0.008772 0.345713
-0.007251 -0.003017 0.345713
-0.003991 0.001861 0.345713
0.000887 0.005121 0.345713
0.006642 0.003342 0.229606
0.002006 0.002420 0.229606
-0.001924 -0.000206 0.229606
-0.004551 -0.004136 0.229606
-0.005473 -0.008772 0.229606
-0.004551 -0.013408 0.229606
-0.001924 -0.017338 0.229606
0.002006 -0.019965 0.229606
0.006642 -0.020887 0.229606
0.011278 -0.019964 0.229606
0.015208 -0.017338 0.229606
0.017834 -0.013408 0.229606
0.018756 -0.008772 0.229606
0.017834 -0.004136 0.229606
0.015208 -0.000206 0.229606
0.011278 0.002420 0.229606
0.012799 0.006093 0.091898
0.006642 0.007318 0.091898
0.018019 0.002606 0.091898
0.021507 -0.002615 0.091898
0.022732 -0.008772 0.091898
0.021507 -0.014930 0.091898
0.018019 -0.020150 0.091898
0.012799 -0.023638 0.091898
0.006642 -0.024862 0.091898
0.000484 -0.023638 0.091898
-0.004736 -0.020150 0.091898
-0.008224 -0.014930 0.091898
-0.009449 -0.008772 0.091898
-0.008224 -0.002615 0.091898
-0.004736 0.002606 0.091898
0.000484 0.006093 0.091898
0.006642 0.013817 0.044375
-0.002003 0.012097 0.044375
-0.009331 0.007201 0.044375
-0.014228 -0.000128 0.044375
-0.015947 -0.008772 0.044375
-0.014228 -0.017417 0.044375
-0.009331 -0.024745 0.044375
-0.002003 -0.029642 0.044375
0.006642 -0.031361 0.044375
0.015286 -0.029642 0.044375
0.022615 -0.024745 0.044375
0.027511 -0.017417 0.044375
0.029231 -0.008772 0.044375
0.027511 -0.000128 0.044375
0.022615 0.007201 0.044375
0.015286 0.012097 0.044375
0.016215 0.014339 0.041135
0.006642 0.016243 0.041135
0.024330 0.008916 0.041135
0.029752 0.000801 0.041135
0.031657 -0.008772 0.041135
0.029752 -0.018345 0.041135
0.024330 -0.026460 0.041135
0.016215 -0.031883 0.041135
0.006642 -0.033787 0.041135
-0.002931 -0.031883 0.041135
-0.011046 -0.026460 0.041135
-0.016469 -0.018345 0.041135
-0.018373 -0.008772 0.041135
-0.016469 0.000801 0.041135
-0.011046 0.008916 0.041135
-0.002931 0.014339 0.041135
0.006642 0.037016 0.033574
-0.010881 0.033531 0.033574
-0.025735 0.023605 0.033574
-0.035661 0.008750 0.033574
-0.039147 -0.008772 0.033574
-0.035661 -0.026295 0.033574
-0.025735 -0.041149 0.033574
-0.010881 -0.051075 0.033574
0.006642 -0.054560 0.033574
0.024164 -0.051075 0.033574
0.039019 -0.041149 0.033574
0.048945 -0.026295 0.033574
0.052430 -0.008772 0.033574
0.048945 0.008750 0.033574
0.039019 0.023605 0.033574
0.024164 0.033531 0.033574
0.040961 0.074082 0.023854
0.006642 0.080908 0.023854
0.070055 0.054641 0.023854
0.089495 0.025547 0.023854
0.096322 -0.008772 0.023854
0.089495 -0.043091 0.023854
0.070055 -0.072186 0.023854
0.040961 -0.091626 0.023854
0.006642 -0.098452 0.023854
-0.027677 -0.091626 0.023854
-0.056772 -0.072186 0.023854
-0.076212 -0.043091 0.023854
-0.083038 -0.008772 0.023854
-0.076212 0.025547 0.023854
-0.056772 0.054641 0.023854
-0.027677 0.074082 0.023854
0.006642 0.093973 0.018453
-0.032677 0.086152 0.018453
-0.066010 0.063880 0.018453
-0.088282 0.030547 0.018453
-0.096103 -0.008772 0.018453
-0.088282 -0.048091 0.018453
-0.066010 -0.081424 0.018453
-0.032677 -0.103696 0.018453
0.006642 -0.111517 0.018453
0.045961 -0.103696 0.018453
0.079294 -0.081424 0.018453
0.101566 -0.048091 0.018453
0.109387 -0.008772 0.018453
0.101566 0.030547 0.018453
0.079294 0.063880 0.018453
0.045961 0.086152 0.018453
0.064272 0.130359 0.013053
0.006642 0.141822 0.013053
0.113128 0.097714 0.013053
0.145772 0.048858 0.013053
0.157236 -0.008772 0.013053
0.145772 -0.066402 0.013053
0.113128 -0.115258 0.013053
0.064272 -0.147903 0.013053
0.006642 -0.159366 0.013053
-0.050988 -0.147903 0.013053
-0.099844 -0.115258 0.013053
-0.132489 -0.066402 0.013053
-0.143952 -0.008772 0.013053
-0.132489 0.048858 0.013053
-0.099844 0.097714 0.013053
-0.050988 0.130359 0.013053
0.006642 0.164838 0.010893
-0.059796 0.151623 0.010893
-0.116119 0.113989 0.010893
-0.153753 0.057666 0.010893
-0.166968 -0.008772 0.010893
-0.153753 -0.075210 0.010893
-0.116119 -0.131533 0.010893
-0.059796 -0.169167 0.010893
0.006642 -0.182382 0.010893
0.073079 -0.169167 0.010893
0.129403 -0.131533 0.010893
0.167036 -0.075210 0.010893
0.180252 -0.008772 0.010893
0.167036 0.057666 0.010893
0.129403 0.113989 0.010893
0.073079 0.151623 0.010893
0.073079 0.151623 0.007653
0.006642 0.164838 0.007653
0.129403 0.113989 0.007653
0.167036 0.057666 0.007653
0.180252 -0.008772 0.007653
0.167036 -0.075210 0.007653
0.129403 -0.131533 0.007653
0.073079 -0.169167 0.007653
0.006642 -0.182382 0.007653
-0.059796 -0.169167 0.007653
-0.116119 -0.131533 0.007653
-0.153753 -0.075210 0.007653
-0.166968 -0.008772 0.007653
-0.153753 0.057666 0.007653
-0.116119 0.113989 0.007653
-0.059796 0.151623 0.007653
0.006642 0.164838 0.000092
-0.059796 0.151623 0.000092
-0.116119 0.113989 0.000092
-0.153753 0.057666 0.000092
-0.166968 -0.008772 0.000092
-0.153753 -0.075210 0.000092
-0.116119 -0.131533 0.000092
-0.059796 -0.169167 0.000092
0.006642 -0.182382 0.000092
0.073079 -0.169167 0.000092
0.129403 -0.131533 0.000092
0.167036 -0.075210 0.000092
0.180252 -0.008772 0.000092
0.167036 0.057666 0.000092
0.129403 0.113989 0.000092
0.073079 0.151623 0.000092
0.069702 0.143468 0.000092
0.006642 0.156011 0.000092
0.123161 0.107747 0.000092
0.158881 0.054288 0.000092
0.171425 -0.008772 0.000092
0.158881 -0.071832 0.000092
0.123161 -0.125291 0.000092
0.069702 -0.161012 0.000092
0.006642 -0.173555 0.000092
-0.056418 -0.161012 0.000092
-0.109877 -0.125291 0.000092
-0.145598 -0.071832 0.000092
-0.158141 -0.008772 0.000092
-0.145598 0.054288 0.000092
-0.109877 0.107747 0.000092
-0.056418 0.143468 0.000092
0.006642 -0.008772 0.000092
-0.056864 0.144545 0.912493
0.006642 0.157177 0.912493
-0.110702 0.108572 0.912493
-0.146675 0.054734 0.912493
-0.159307 -0.008772 0.912493
-0.146675 -0.072278 0.912493
-0.110702 -0.126116 0.912493
-0.056864 -0.162089 0.912493
0.006642 -0.174721 0.912493
0.070148 -0.162089 0.912493
0.123985 -0.126116 0.912493
0.159959 -0.072278 0.912493
0.172591 -0.008772 0.912493
0.159959 0.054734 0.912493
0.123985 0.108572 0.912493
0.070148 0.144545 0.912493
0.006642 0.142896 0.977296
-0.051399 0.131351 0.977296
-0.049822 0.127543 0.977296
0.006642 0.138774 0.977296
-0.100603 0.098473 0.977296
-0.097689 0.095559 0.977296
-0.133481 0.049269 0.977296
-0.129673 0.047691 0.977296
-0.145026 -0.008772 0.977296
-0.140904 -0.008772 0.977296
-0.133481 -0.066813 0.977296
-0.129673 -0.065236 0.977296
-0.100603 -0.116017 0.977296
-0.097689 -0.113103 0.977296
-0.051399 -0.148895 0.977296
-0.049822 -0.145087 0.977296
0.006642 -0.160440 0.977296
0.006642 -0.156318 0.977296
0.064683 -0.148895 0.977296
0.063105 -0.145087 0.977296
0.113887 -0.116017 0.977296
0.110973 -0.113103 0.977296
0.146764 -0.066813 0.977296
0.142957 -0.065236 0.977296
0.158309 -0.008772 0.977296
0.154188 -0.008772 0.977296
0.146764 0.049269 0.977296
0.142957 0.047691 0.977296
0.113887 0.098473 0.977296
0.110973 0.095559 0.977296
0.064683 0.131351 0.977296
0.063105 0.127543 0.977296
0.006642 0.139668 0.973650
0.063447 0.128369 0.973650
0.111605 0.096191 0.973650
0.143783 0.048034 0.973650
0.155082 -0.008772 0.973650
0.143783 -0.065578 0.973650
0.111605 -0.113735 0.973650
0.063447 -0.145913 0.973650
0.006642 -0.157212 0.973650
-0.050164 -0.145913 0.973650
-0.098321 -0.113735 0.973650
-0.130499 -0.065578 0.973650
-0.141799 -0.008772 0.973650
-0.130499 0.048034 0.973650
-0.098321 0.096191 0.973650
-0.050164 0.128369 0.973650
0.006642 0.144029 0.972153
0.065116 0.132398 0.972153
0.114689 0.099275 0.972153
0.147812 0.049702 0.972153
0.159443 -0.008772 0.972153
0.147812 -0.067247 0.972153
0.114689 -0.116819 0.972153
0.065116 -0.149942 0.972153
0.006642 -0.161573 0.972153
-0.051833 -0.149942 0.972153
-0.101405 -0.116819 0.972153
-0.134528 -0.067247 0.972153
-0.146159 -0.008772 0.972153
-0.134528 0.049702 0.972153
-0.101405 0.099275 0.972153
-0.051833 0.132398 0.972153
0.006642 0.143884 0.974724
0.065061 0.132264 0.974724
0.114586 0.099172 0.974724
0.147678 0.049647 0.974724
0.159298 -0.008772 0.974724
0.147678 -0.067191 0.974724
0.114586 -0.116716 0.974724
0.065061 -0.149808 0.974724
0.006642 -0.161428 0.974724
-0.051777 -0.149808 0.974724
-0.101302 -0.116716 0.974724
-0.134394 -0.067191 0.974724
-0.146014 -0.008772 0.974724
-0.134394 0.049647 0.974724
-0.101302 0.099172 0.974724
-0.051777 0.132264 0.974724
-0.054214 0.138146 0.915148
0.006642 0.150251 0.915148
-0.105804 0.103674 0.915148
-0.140276 0.052083 0.915148
-0.152381 -0.008772 0.915148
-0.140276 -0.069627 0.915148
-0.105804 -0.121218 0.915148
-0.054214 -0.155690 0.915148
0.006642 -0.167795 0.915148
0.067497 -0.155690 0.915148
0.119088 -0.121218 0.915148
0.153560 -0.069627 0.915148
0.165665 -0.008772 0.915148
0.153560 0.052083 0.915148
0.119088 0.103674 0.915148
0.067497 0.138146 0.915148
0.006642 0.161623 0.796344
0.071849 0.148652 0.796344
0.127129 0.111715 0.796344
0.164066 0.056435 0.796344
0.177037 -0.008772 0.796344
0.164066 -0.073980 0.796344
0.127129 -0.129260 0.796344
0.071849 -0.166197 0.796344
0.006642 -0.179167 0.796344
-0.058566 -0.166197 0.796344
-0.113846 -0.129260 0.796344
-0.150783 -0.073980 0.796344
-0.163753 -0.008772 0.796344
-0.150783 0.056435 0.796344
-0.113846 0.111715 0.796344
-0.058566 0.148653 0.796344
-0.055284 0.140729 0.654860
0.006642 0.153047 0.654860
-0.107781 0.105651 0.654860
-0.142859 0.053153 0.654860
-0.155177 -0.008772 0.654860
-0.142859 -0.070697 0.654860
-0.107781 -0.123195 0.654860
-0.055284 -0.158273 0.654860
0.006642 -0.170591 0.654860
0.068567 -0.158273 0.654860
0.121065 -0.123195 0.654860
0.156143 -0.070697 0.654860
0.168461 -0.008772 0.654860
0.156143 0.053153 0.654860
0.121065 0.105651 0.654860
0.068567 0.140729 0.654860
0.006642 0.119536 0.546857
0.055743 0.109769 0.546857
0.097369 0.081955 0.546857
0.125183 0.040329 0.546857
0.134950 -0.008772 0.546857
0.125183 -0.057873 0.546857
0.097369 -0.099500 0.546857
0.055743 -0.127313 0.546857
0.006642 -0.137080 0.546857
-0.042460 -0.127313 0.546857
-0.084086 -0.099500 0.546857
-0.111899 -0.057873 0.546857
-0.121666 -0.008772 0.546857
-0.111899 0.040329 0.546857
-0.084086 0.081955 0.546857
-0.042460 0.109769 0.546857
-0.025996 0.070023 0.485295
0.006642 0.076515 0.485295
-0.053665 0.051535 0.485295
-0.072153 0.023866 0.485295
-0.078645 -0.008772 0.485295
-0.072153 -0.041410 0.485295
-0.053665 -0.069079 0.485295
-0.025996 -0.087567 0.485295
0.006642 -0.094059 0.485295
0.039280 -0.087567 0.485295
0.066949 -0.069079 0.485295
0.085437 -0.041410 0.485295
0.091929 -0.008772 0.485295
0.085437 0.023866 0.485295
0.066949 0.051535 0.485295
0.039280 0.070023 0.485295
0.006642 0.053232 0.469094
0.030370 0.048512 0.469094
0.050485 0.035071 0.469094
0.063926 0.014956 0.469094
0.068646 -0.008772 0.469094
0.063926 -0.032500 0.469094
0.050485 -0.052615 0.469094
0.030370 -0.066056 0.469094
0.006642 -0.070776 0.469094
-0.017086 -0.066056 0.469094
-0.037202 -0.052615 0.469094
-0.050642 -0.032500 0.469094
-0.055362 -0.008772 0.469094
-0.050642 0.014956 0.469094
-0.037202 0.035071 0.469094
-0.017086 0.048512 0.469094
-0.010766 0.033253 0.463694
0.006642 0.036716 0.463694
-0.025523 0.023393 0.463694
-0.035384 0.008635 0.463694
-0.038846 -0.008772 0.463694
-0.035384 -0.026180 0.463694
-0.025523 -0.040937 0.463694
-0.010766 -0.050798 0.463694
0.006642 -0.054260 0.463694
0.024049 -0.050798 0.463694
0.038807 -0.040937 0.463694
0.048667 -0.026180 0.463694
0.052130 -0.008772 0.463694
0.048667 0.008635 0.463694
0.038807 0.023393 0.463694
0.024049 0.033253 0.463694
0.006642 0.014788 0.461534
0.015658 0.012994 0.461534
0.023301 0.007887 0.461534
0.028408 0.000244 0.461534
0.030201 -0.008772 0.461534
0.028408 -0.017788 0.461534
0.023301 -0.025431 0.461534
0.015658 -0.030538 0.461534
0.006642 -0.032332 0.461534
-0.002374 -0.030538 0.461534
-0.010017 -0.025431 0.461534
-0.015124 -0.017788 0.461534
-0.016918 -0.008772 0.461534
-0.015124 0.000244 0.461534
-0.010017 0.007887 0.461534
-0.002374 0.012994 0.461534
0.006642 -0.008772 0.461534
4 0 1 2 3
4 0 3 4 5
4 6 5 4 7
4 8 6 7 9
4 10 8 9 11
4 12 10 11 13
4 14 12 13 15
4 16 14 15 17
4 18 16 17 19
4 20 18 19 21
4 22 20 21 23
4 24 22 23 25
4 26 24 25 27
4 28 26 27 29
4 30 28 29 31
4 2 1 30 31
4 31 32 33 2
4 31 29 34 32
4 29 27 35 34
4 27 25 36 35
4 25 23 37 36
4 23 21 38 37
4 21 19 39 38
4 19 17 40 39
4 17 15 41 40
4 15 13 42 41
4 13 11 43 42
4 11 9 44 43
4 9 7 45 44
4 7 4 46 45
4 3 47 46 4
4 3 2 33 47
4 47 33 48 49
4 47 49 50 46
4 45 46 50 51
4 44 45 51 52
4 43 44 52 53
4 42 43 53 54
4 41 42 54 55
4 40 41 55 56
4 39 40 56 57
4 38 39 57 58
4 37 38 58 59
4 36 37 59 60
4 35 36 60 61
4 34 35 61 62
4 32 34 62 63
4 32 63 48 33
4 63 64 65 48
4 63 62 66 64
4 62 61 67 66
4 61 60 68 67
4 60 59 69 68
4 59 58 70 69
4 58 57 71 70
4 57 56 72 71
4 56 55 73 72
4 55 54 74 73
4 54 53 75 74
4 53 52 76 75
4 52 51 77 76
4 51 50 78 77
4 49 79 78 50
4 49 48 65 79
4 79 65 80 81
4 79 81 82 78
4 77 78 82 83
4 76 77 83 84
4 75 76 84 85
4 74 75 85 86
4 73 74 86 87
4 72 73 87 88
4 71 72 88 89
4 70 71 89 90
4 69 70 90 91
4 68 69 91 92
4 67 68 92 93
4 66 67 93 94
4 64 66 94 95
4 64 95 80 65
4 95 96 97 80
4 95 94 98 96
4 94 93 99 98
4 93 92 100 99
4 92 91 101 100
4 91 90 102 101
4 90 89 103 102
4 89 88 104 103
4 88 87 105 104
4 87 86 106 105
4 86 85 107 106
4 85 84 108 107
4 84 83 109 108
4 83 82 110 109
4 81 111 110 82
4 81 80 97 111
4 111 97 112 113
4 111 113 114 110
4 109 110 114 115
4 108 109 115 116
4 107 108 116 117
4 106 107 117 118
4 105 106 118 119
4 104 105 119 120
4 103 104 120 121
4 102 103 121 122
4 101 102 122 123
4 100 101 123 124
4 99 100 124 125
4 98 99 125 126
4 96 98 126 127
4 96 127 112 97
4 127 128 129 112
4 127 126 130 128
4 126 125 131 130
4 125 124 132 131
4 124 123 133 132
4 123 122 134 133
4 122 121 135 134
4 121 120 136 135
4 120 119 137 136
4 119 118 138 137
4 118 117 139 138
4 117 116 140 139
4 116 115 141 140
4 115 114 142 141
4 113 143 142 114
4 113 112 129 143
4 143 129 144 145
4 143 145 146 142
4 141 142 146 147
4 140 141 147 148
4 139 140 148 149
4 138 139 149 150
4 137 138 150 151
4 136 137 151 152
4 135 136 152 153
4 134 135 153 154
4 133 134 154 155
4 132 133 155 156
4 131 132 156 157
4 130 131 157 158
4 128 130 158 159
4 128 159 144 129
4 159 160 161 144
4 159 158 162 160
4 158 157 163 162
4 157 156 164 163
4 156 155 165 164
4 155 154 166 165
4 154 153 167 166
4 153 152 168 167
4 152 151 169 168
4 151 150 170 169
4 150 149 171 170
4 149 148 172 171
4 148 147 173 172
4 147 146 174 173
4 145 175 174 146
4 145 144 161 175
4 175 161 176 177
4 175 177 178 174
4 173 174 178 179
4 172 173 179 180
4 171 172 180 181
4 170 171 181 182
4 169 170 182 183
4 168 169 183 184
4 167 168 184 185
4 166 167 185 186
4 165 166 186 187
4 164 165 187 188
4 163 164 188 189
4 162 163 189 190
4 160 162 190 191
4 160 191 176 161
4 191 192 193 176
4 191 190 194 192
4 190 189 195 194
4 189 188 196 195
4 188 187 197 196
4 187 186 198 197
4 186 185 199 198
4 185 184 200 199
4 184 183 201 200
4 183 182 202 201
4 182 181 203 202
4 181 180 204 203
4 180 179 205 204
4 179 178 206 205
4 177 207 206 178
4 177 176 193 207
4 207 193 208 209
4 207 209 210 206
4 205 206 210 211
4 204 205 211 212
4 203 204 212 213
4 202 203 213 214
4 201 202 214 215
4 200 201 215 216
4 199 200 216 217
4 198 199 217 218
4 197 198 218 219
4 196 197 219 220
4 195 196 220 221
4 194 195 221 222
4 192 194 222 223
4 192 223 208 193
4 223 224 225 208
4 223 222 226 224
4 222 221 227 226
4 221 220 228 227
4 220 219 229 228
4 219 218 230 229
4 218 217 231 230
4 217 216 232 231
4 216 215 233 232
4 215 214 234 233
4 214 213 235 234
4 213 212 236 235
4 212 211 237 236
4 211 210 238 237
4 209 239 238 210
4 209 208 225 239
4 239 225 240 241
4 239 241 242 238
4 237 238 242 243
4 236 237 243 244
4 235 236 244 245
4 234 235 245 246
4 233 234 246 247
4 232 233 247 248
4 231 232 248 249
4 230 231 249 250
4 229 230 250 251
4 228 229 251 252
4 227 228 252 253
4 226 227 253 254
4 224 226 254 255
4 224 255 240 225
4 255 256 257 240
4 255 254 258 256
4 254 253 259 258
4 253 252 260 259
4 252 251 261 260
4 251 250 262 261
4 250 249 263 262
4 249 248 264 263
4 248 247 265 264
4 247 246 266 265
4 246 245 267 266
4 245 244 268 267
4 244 243 269 268
4 243 242 270 269
4 241 271 270 242
4 241 240 257 271
4 271 257 272 273
4 271 273 274 270
4 269 270 274 275
4 268 269 275 276
4 267 268 276 277
4 266 267 277 278
4 265 266 278 279
4 264 265 279 280
4 263 264 280 281
4 262 263 281 282
4 261 262 282 283
4 260 261 283 284
4 259 260 284 285
4 258 259 285 286
4 256 258 286 287
4 256 287 272 257
4 287 288 289 272
4 287 286 290 288
4 286 285 291 290
4 285 284 292 291
4 284 283 293 292
4 283 282 294 293
4 282 281 295 294
4 281 280 296 295
4 280 279 297 296
4 279 278 298 297
4 278 277 299 298
4 277 276 300 299
4 276 275 301 300
4 275 274 302 301
4 273 303 302 274
4 273 272 289 303
4 303 289 304 305
4 303 305 306 302
4 301 302 306 307
4 300 301 307 308
4 299 300 308 309
4 298 299 309 310
4 297 298 310 311
4 296 297 311 312
4 295 296 312 313
4 294 295 313 314
4 293 294 314 315
4 292 293 315 316
4 291 292 316 317
4 290 291 317 318
4 288 290 318 319
4 288 319 304 289
4 319 320 321 304
4 319 318 322 320
4 318 317 323 322
4 317 316 324 323
4 316 315 325 324
4 315 314 326 325
4 314 313 327 326
4 313 312 328 327
4 312 311 329 328
4 311 310 330 329
4 310 309 331 330
4 309 308 332 331
4 308 307 333 332
4 307 306 334 333
4 305 335 334 306
4 305 304 321 335
3 335 321 336
3 335 336 334
3 333 334 336
3 332 333 336
3 331 332 336
3 330 331 336
3 329 330 336
3 328 329 336
3 327 328 336
3 326 327 336
3 325 326 336
3 324 325 336
3 323 324 336
3 322 323 336
3 320 322 336
3 320 336 321
4 1 0 337 338
4 337 0 5 339
4 5 6 340 339
4 6 8 341 340
4 8 10 342 341
4 10 12 343 342
4 12 14 344 343
4 14 16 345 344
4 16 18 346 345
4 18 20 347 346
4 20 22 348 347
4 22 24 349 348
4 24 26 350 349
4 26 28 351 350
4 28 30 352 351
4 1 338 352 30
4 353 354 355 356
4 357 358 355 354
4 357 359 360 358
4 359 361 362 360
4 361 363 364 362
4 363 365 366 364
4 365 367 368 366
4 367 369 370 368
4 369 371 372 370
4 371 373 374 372
4 373 375 376 374
4 375 377 378 376
4 377 379 380 378
4 379 381 382 380
4 381 383 384 382
4 353 356 384 383
4 356 385 386 384
4 382 384 386 387
4 380 382 387 388
4 378 380 388 389
4 376 378 389 390
4 374 376 390 391
4 372 374 391 392
4 370 372 392 393
4 368 370 393 394
4 366 368 394 395
4 364 366 395 396
4 362 364 396 397
4 360 362 397 398
4 358 360 398 399
4 358 399 400 355
4 356 355 400 385
4 352 338 401 402
4 352 402 403 351
4 351 403 404 350
4 350 404 405 349
4 349 405 406 348
4 348 406 407 347
4 347 407 408 346
4 346 408 409 345
4 345 409 410 344
4 344 410 411 343
4 343 411 412 342
4 342 412 413 341
4 341 413 414 340
4 340 414 415 339
4 337 339 415 416
4 337 416 401 338
4 402 401 417 418
4 418 417 353 383
4 402 418 419 403
4 418 383 381 419
4 403 419 420 404
4 419 381 379 420
4 404 420 421 405
4 420 379 377 421
4 405 421 422 406
4 421 377 375 422
4 406 422 423 407
4 422 375 373 423
4 407 423 424 408
4 423 373 371 424
4 408 424 425 409
4 424 371 369 425
4 409 425 426 410
4 425 369 367 426
4 410 426 427 411
4 426 367 365 427
4 411 427 428 412
4 427 365 363 428
4 412 428 429 413
4 428 363 361 429
4 413 429 430 414
4 429 361 359 430
4 414 430 431 415
4 430 359 357 431
4 416 415 431 432
4 432 431 357 354
4 416 432 417 401
4 432 354 353 417
4 385 400 433 434
4 399 435 433 400
4 399 398 436 435
4 398 397 437 436
4 397 396 438 437
4 396 395 439 438
4 395 394 440 439
4 394 393 441 440
4 393 392 442 441
4 392 391 443 442
4 391 390 444 443
4 390 389 445 444
4 389 388 446 445
4 388 387 447 446
4 387 386 448 447
4 385 434 448 386
4 434 449 450 448
4 447 448 450 451
4 446 447 451 452
4 445 446 452 453
4 444 445 453 454
4 443 444 454 455
4 442 443 455 456
4 441 442 456 457
4 440 441 457 458
4 439 440 458 459
4 438 439 459 460
4 437 438 460 461
4 436 437 461 462
4 435 436 462 463
4 435 463 464 433
4 434 433 464 449
4 449 464 465 466
4 463 467 465 464
4 463 462 468 467
4 462 461 469 468
4 461 460 470 469
4 460 459 471 470
4 459 458 472 471
4 458 457 473 472
4 457 456 474 473
4 456 455 475 474
4 455 454 476 475
4 454 453 477 476
4 453 452 478 477
4 452 451 479 478
4 451 450 480 479
4 449 466 480 450
4 466 481 482 480
4 479 480 482 483
4 478 479 483 484
4 477 478 484 485
4 476 477 485 486
4 475 476 486 487
4 474 475 487 488
4 473 474 488 489
4 472 473 489 490
4 471 472 490 491
4 470 471 491 492
4 469 470 492 493
4 468 469 493 494
4 467 468 494 495
4 467 495 496 465
4 466 465 496 481
4 481 496 497 498
4 495 499 497 496
4 495 494 500 499
4 494 493 501 500
4 493 492 502 501
4 492 491 503 502
4 491 490 504 503
4 490 489 505 504
4 489 488 506 505
4 488 487 507 506
4 487 486 508 507
4 486 485 509 508
4 485 484 510 509
4 484 483 511 510
4 483 482 512 511
4 481 498 512 482
4 498 513 514 512
4 511 512 514 515
4 510 511 515 516
4 509 510 516 517
4 508 509 517 518
4 507 508 518 519
4 506 507 519 520
4 505 506 520 521
4 504 505 521 522
4 503 504 522 523
4 502 503 523 524
4 501 502 524 525
4 500 501 525 526
4 499 500 526 527
4 499 527 528 497
4 498 497 528 513
4 513 528 529 530
4 527 531 529 528
4 527 526 532 531
4 526 525 533 532
4 525 524 534 533
4 524 523 535 534
4 523 522 536 535
4 522 521 537 536
4 521 520 538 537
4 520 519 539 538
4 519 518 540 539
4 518 517 541 540
4 517 516 542 541
4 516 515 543 542
4 515 514 544 543
4 513 530 544 514
4 530 545 546 544
4 543 544 546 547
4 542 543 547 548
4 541 542 548 549
4 540 541 549 550
4 539 540 550 551
4 538 539 551 552
4 537 538 552 553
4 536 537 553 554
4 535 536 554 555
4 534 535 555 556
4 533 534 556 557
4 532 533 557 558
4 531 532 558 559
4 531 559 560 529
4 530 529 560 545
3 545 560 561
3 559 561 560
3 559 558 561
3 558 557 561
3 557 556 561
3 556 555 561
3 555 554 561
3 554 553 561
3 553 552 561
3 552 551 561
3 551 550 561
3 550 549 561
3 549 548 561
3 548 547 561
3 547 546 561
3 545 561 546
