ply
format ascii 1.0
comment Created by Blender 2.77 (sub 0) - www.blender.org, source file: ''
element vertex 358
property float x
property float y
property float z
element face 503
property list uchar uint vertex_indices
end_header
-0.317690 2.131621 1.412960
-0.405888 2.166541 1.412960
-0.500000 2.178430 1.412960
-0.594111 2.166541 1.412960
-0.682310 2.131621 1.412960
-0.759053 2.075864 1.412960
-0.819519 2.002773 1.412960
-0.859908 1.916942 1.412960
-0.877683 1.823762 1.412960
-0.871727 1.729089 1.412960
-0.842414 1.638873 1.412960
-0.791586 1.558780 1.412960
-0.722436 1.493844 1.412960
-0.639310 1.448145 1.412960
-0.547430 1.424554 1.412960
-0.452570 1.424554 1.412960
-0.360691 1.448144 1.412960
-0.277564 1.493843 1.412960
-0.208415 1.558779 1.412960
-0.157586 1.638872 1.412960
-0.128273 1.729089 1.412960
-0.122317 1.823762 1.412960
-0.140091 1.916941 1.412960
-0.180481 2.002773 1.412960
-0.240947 2.075864 1.412960
-0.405888 2.166541 0.656099
-0.500000 2.178430 0.656099
-0.317690 2.131621 0.656099
-0.240947 2.075864 0.656099
-0.180481 2.002773 0.656099
-0.140091 1.916941 0.656099
-0.122317 1.823762 0.656099
-0.128273 1.729089 0.656099
-0.157586 1.638872 0.656099
-0.208415 1.558779 0.656099
-0.277564 1.493843 0.656099
-0.360691 1.448144 0.656099
-0.452570 1.424554 0.656099
-0.547430 1.424554 0.656099
-0.639310 1.448145 0.656099
-0.722436 1.493844 0.656099
-0.791586 1.558780 0.656099
-0.842414 1.638873 0.656099
-0.871727 1.729089 0.656099
-0.877683 1.823762 0.656099
-0.859908 1.916942 0.656099
-0.819519 2.002773 0.656099
-0.759053 2.075864 0.656099
-0.682310 2.131621 0.656099
-0.594111 2.166541 0.656099
0.682310 2.131621 1.412960
0.594112 2.166541 1.412960
0.500000 2.178430 1.412960
0.405889 2.166541 1.412960
0.317690 2.131621 1.412960
0.240947 2.075864 1.412960
0.180481 2.002773 1.412960
0.140092 1.916942 1.412960
0.122317 1.823762 1.412960
0.128273 1.729089 1.412960
0.157586 1.638873 1.412960
0.208414 1.558780 1.412960
0.277564 1.493844 1.412960
0.360690 1.448145 1.412960
0.452570 1.424554 1.412960
0.547430 1.424554 1.412960
0.639309 1.448144 1.412960
0.722436 1.493843 1.412960
0.791585 1.558779 1.412960
0.842414 1.638872 1.412960
0.871727 1.729089 1.412960
0.877683 1.823762 1.412960
0.859909 1.916941 1.412960
0.819519 2.002773 1.412960
0.759053 2.075864 1.412960
0.500000 2.178430 0.656099
0.594112 2.166541 0.656099
0.682310 2.131621 0.656099
0.759053 2.075864 0.656099
0.819519 2.002773 0.656099
0.859909 1.916941 0.656099
0.877683 1.823762 0.656099
0.871727 1.729089 0.656099
0.842414 1.638872 0.656099
0.791585 1.558779 0.656099
0.722436 1.493843 0.656099
0.639309 1.448144 0.656099
0.547430 1.424554 0.656099
0.452570 1.424554 0.656099
0.360690 1.448145 0.656099
0.277564 1.493844 0.656099
0.208414 1.558780 0.656099
0.157586 1.638873 0.656099
0.128273 1.729089 0.656099
0.122317 1.823762 0.656099
0.140092 1.916942 0.656099
0.180481 2.002773 0.656099
0.240947 2.075864 0.656099
0.317690 2.131621 0.656099
0.405889 2.166541 0.656099
0.682310 -1.468379 1.412960
0.594112 -1.433459 1.412960
0.500000 -1.421570 1.412960
0.405889 -1.433459 1.412960
0.317690 -1.468379 1.412960
0.240947 -1.524136 1.412960
0.180481 -1.597227 1.412960
0.140092 -1.683058 1.412960
0.122317 -1.776238 1.412960
0.128273 -1.870910 1.412960
0.157586 -1.961127 1.412960
0.208414 -2.041220 1.412960
0.277564 -2.106156 1.412960
0.360690 -2.151855 1.412960
0.452570 -2.175446 1.412960
0.547430 -2.175446 1.412960
0.639309 -2.151855 1.412960
0.722436 -2.106157 1.412960
0.791585 -2.041220 1.412960
0.842414 -1.961128 1.412960
0.871727 -1.870911 1.412960
0.877683 -1.776238 1.412960
0.859909 -1.683059 1.412960
0.819519 -1.597227 1.412960
0.759053 -1.524136 1.412960
0.500000 -1.421570 0.656099
0.594112 -1.433459 0.656099
0.682310 -1.468379 0.656099
0.759053 -1.524136 0.656099
0.819519 -1.597227 0.656099
0.859909 -1.683059 0.656099
0.877683 -1.776238 0.656099
0.871727 -1.870911 0.656099
0.842414 -1.961128 0.656099
0.791585 -2.041220 0.656099
0.722436 -2.106157 0.656099
0.639309 -2.151855 0.656099
0.547430 -2.175446 0.656099
0.452570 -2.175446 0.656099
0.360690 -2.151855 0.656099
0.277564 -2.106156 0.656099
0.208414 -2.041220 0.656099
0.157586 -1.961127 0.656099
0.128273 -1.870910 0.656099
0.122317 -1.776238 0.656099
0.140092 -1.683058 0.656099
0.180481 -1.597227 0.656099
0.240947 -1.524136 0.656099
0.317690 -1.468379 0.656099
0.405889 -1.433459 0.656099
0.682310 -0.268379 1.412960
0.594112 -0.233459 1.412960
0.500000 -0.221570 1.412960
0.405889 -0.233459 1.412960
0.317690 -0.268379 1.412960
0.240947 -0.324136 1.412960
0.180481 -0.397227 1.412960
0.140092 -0.483058 1.412960
0.122317 -0.576238 1.412960
0.128273 -0.670910 1.412960
0.157586 -0.761127 1.412960
0.208414 -0.841220 1.412960
0.277564 -0.906156 1.412960
0.360690 -0.951855 1.412960
0.452570 -0.975446 1.412960
0.547430 -0.975446 1.412960
0.639309 -0.951856 1.412960
0.722436 -0.906157 1.412960
0.791585 -0.841221 1.412960
0.842414 -0.761128 1.412960
0.871727 -0.670911 1.412960
0.877683 -0.576238 1.412960
0.859909 -0.483059 1.412960
0.819519 -0.397227 1.412960
0.759053 -0.324136 1.412960
0.500000 -0.221570 0.656099
0.594112 -0.233459 0.656099
0.682310 -0.268379 0.656099
0.759053 -0.324136 0.656099
0.819519 -0.397227 0.656099
0.859909 -0.483059 0.656099
0.877683 -0.576238 0.656099
0.871727 -0.670911 0.656099
0.842414 -0.761128 0.656099
0.791585 -0.841221 0.656099
0.722436 -0.906157 0.656099
0.639309 -0.951856 0.656099
0.547430 -0.975446 0.656099
0.452570 -0.975446 0.656099
0.360690 -0.951855 0.656099
0.277564 -0.906156 0.656099
0.208414 -0.841220 0.656099
0.157586 -0.761127 0.656099
0.128273 -0.670910 0.656099
0.122317 -0.576238 0.656099
0.140092 -0.483058 0.656099
0.180481 -0.397227 0.656099
0.240947 -0.324136 0.656099
0.317690 -0.268379 0.656099
0.405889 -0.233459 0.656099
-1.000000 -2.257822 1.124125
-1.000000 2.257822 1.124125
-1.000000 2.257822 -0.042114
-1.000000 -2.257822 -0.042114
1.000000 2.257822 1.124125
1.000000 2.257822 -0.042114
1.000000 -2.257822 1.124125
1.000000 -2.257822 -0.042114
-0.317690 0.931621 1.412960
-0.405888 0.966541 1.412960
-0.500000 0.978430 1.412960
-0.594111 0.966541 1.412960
-0.682310 0.931621 1.412960
-0.759053 0.875864 1.412960
-0.819519 0.802773 1.412960
-0.859908 0.716942 1.412960
-0.877683 0.623762 1.412960
-0.871727 0.529090 1.412960
-0.842414 0.438872 1.412960
-0.791586 0.358780 1.412960
-0.722436 0.293844 1.412960
-0.639310 0.248145 1.412960
-0.547430 0.224554 1.412960
-0.452570 0.224554 1.412960
-0.360691 0.248144 1.412960
-0.277564 0.293843 1.412960
-0.208415 0.358779 1.412960
-0.157586 0.438872 1.412960
-0.128273 0.529089 1.412960
-0.122317 0.623762 1.412960
-0.140091 0.716941 1.412960
-0.180481 0.802773 1.412960
-0.240947 0.875864 1.412960
-0.500000 0.978430 0.656099
-0.405888 0.966541 0.656099
-0.317690 0.931621 0.656099
-0.240947 0.875864 0.656099
-0.180481 0.802773 0.656099
-0.140091 0.716941 0.656099
-0.122317 0.623762 0.656099
-0.128273 0.529089 0.656099
-0.157586 0.438872 0.656099
-0.208415 0.358779 0.656099
-0.277564 0.293843 0.656099
-0.360691 0.248144 0.656099
-0.452570 0.224554 0.656099
-0.547430 0.224554 0.656099
-0.639310 0.248145 0.656099
-0.722436 0.293844 0.656099
-0.791586 0.358780 0.656099
-0.842414 0.438872 0.656099
-0.871727 0.529090 0.656099
-0.877683 0.623762 0.656099
-0.859908 0.716942 0.656099
-0.819519 0.802773 0.656099
-0.759053 0.875864 0.656099
-0.682310 0.931621 0.656099
-0.594111 0.966541 0.656099
-0.317690 -1.468379 1.412960
-0.405888 -1.433459 1.412960
-0.500000 -1.421570 1.412960
-0.594111 -1.433459 1.412960
-0.682310 -1.468379 1.412960
-0.759053 -1.524136 1.412960
-0.819519 -1.597227 1.412960
-0.859908 -1.683058 1.412960
-0.877683 -1.776238 1.412960
-0.871727 -1.870910 1.412960
-0.842414 -1.961127 1.412960
-0.791586 -2.041220 1.412960
-0.722436 -2.106156 1.412960
-0.639310 -2.151855 1.412960
-0.547430 -2.175446 1.412960
-0.452570 -2.175446 1.412960
-0.360691 -2.151855 1.412960
-0.277564 -2.106157 1.412960
-0.208415 -2.041220 1.412960
-0.157586 -1.961128 1.412960
-0.128273 -1.870911 1.412960
-0.122317 -1.776238 1.412960
-0.140091 -1.683059 1.412960
-0.180481 -1.597227 1.412960
-0.240947 -1.524136 1.412960
-0.500000 -1.421570 0.656099
-0.405888 -1.433459 0.656099
-0.317690 -1.468379 0.656099
-0.240947 -1.524136 0.656099
-0.180481 -1.597227 0.656099
-0.140091 -1.683059 0.656099
-0.122317 -1.776238 0.656099
-0.128273 -1.870911 0.656099
-0.157586 -1.961128 0.656099
-0.208415 -2.041220 0.656099
-0.277564 -2.106157 0.656099
-0.360691 -2.151855 0.656099
-0.452570 -2.175446 0.656099
-0.547430 -2.175446 0.656099
-0.639310 -2.151855 0.656099
-0.722436 -2.106156 0.656099
-0.791586 -2.041220 0.656099
-0.842414 -1.961127 0.656099
-0.871727 -1.870910 0.656099
-0.877683 -1.776238 0.656099
-0.859908 -1.683058 0.656099
-0.819519 -1.597227 0.656099
-0.759053 -1.524136 0.656099
-0.682310 -1.468379 0.656099
-0.594111 -1.433459 0.656099
0.682310 0.931621 1.412960
0.594112 0.966541 1.412960
0.500000 0.978430 1.412960
0.405889 0.966541 1.412960
0.317690 0.931621 1.412960
0.240947 0.875864 1.412960
0.180481 0.802773 1.412960
0.140092 0.716942 1.412960
0.122317 0.623762 1.412960
0.128273 0.529090 1.412960
0.157586 0.438872 1.412960
0.208414 0.358780 1.412960
0.277564 0.293844 1.412960
0.360690 0.248145 1.412960
0.452570 0.224554 1.412960
0.547430 0.224554 1.412960
0.639309 0.248144 1.412960
0.722436 0.293843 1.412960
0.791585 0.358779 1.412960
0.842414 0.438872 1.412960
0.871727 0.529089 1.412960
0.877683 0.623762 1.412960
0.859909 0.716941 1.412960
0.819519 0.802773 1.412960
0.759053 0.875864 1.412960
0.500000 0.978430 0.656099
0.594112 0.966541 0.656099
0.682310 0.931621 0.656099
0.759053 0.875864 0.656099
0.819519 0.802773 0.656099
0.859909 0.716941 0.656099
0.877683 0.623762 0.656099
0.871727 0.529089 0.656099
0.842414 0.438872 0.656099
0.791585 0.358779 0.656099
0.722436 0.293843 0.656099
0.639309 0.248144 0.656099
0.547430 0.224554 0.656099
0.452570 0.224554 0.656099
0.360690 0.248145 0.656099
0.277564 0.293844 0.656099
0.208414 0.358780 0.656099
0.157586 0.438872 0.656099
0.128273 0.529090 0.656099
0.122317 0.623762 0.656099
0.140092 0.716942 0.656099
0.180481 0.802773 0.656099
0.240947 0.875864 0.656099
0.317690 0.931621 0.656099
0.405889 0.966541 0.656099
3 0 1 2
3 2 3 4
3 4 5 6
3 6 7 8
3 8 9 10
3 10 11 12
3 12 13 14
3 14 15 16
3 16 17 18
3 18 19 20
3 20 21 22
3 22 23 24
3 24 0 2
3 2 4 6
3 6 8 10
3 10 12 14
3 14 16 18
3 18 20 22
3 22 24 2
3 2 6 10
3 10 14 18
3 18 22 2
3 2 10 18
4 1 25 26 2
4 25 1 0 27
4 27 0 24 28
4 28 24 23 29
4 29 23 22 30
4 30 22 21 31
4 31 21 20 32
4 32 20 19 33
4 33 19 18 34
4 34 18 17 35
4 35 17 16 36
4 36 16 15 37
4 37 15 14 38
4 38 14 13 39
4 39 13 12 40
4 40 12 11 41
4 41 11 10 42
4 42 10 9 43
4 43 9 8 44
4 44 8 7 45
4 45 7 6 46
4 46 6 5 47
4 47 5 4 48
4 49 3 2 26
4 48 4 3 49
3 49 26 25
3 25 27 28
3 28 29 30
3 30 31 32
3 32 33 34
3 34 35 36
3 36 37 38
3 38 39 40
3 40 41 42
3 42 43 44
3 44 45 46
3 46 47 48
3 48 49 25
3 25 28 30
3 30 32 34
3 34 36 38
3 38 40 42
3 42 44 46
3 46 48 25
3 25 30 34
3 34 38 42
3 42 46 25
3 25 34 42
3 50 51 52
3 52 53 54
3 54 55 56
3 56 57 58
3 58 59 60
3 60 61 62
3 62 63 64
3 64 65 66
3 66 67 68
3 68 69 70
3 70 71 72
3 72 73 74
3 74 50 52
3 52 54 56
3 56 58 60
3 60 62 64
3 64 66 68
3 68 70 72
3 72 74 52
3 52 56 60
3 60 64 68
3 68 72 52
3 52 60 68
4 75 52 51 76
4 76 51 50 77
4 77 50 74 78
4 78 74 73 79
4 79 73 72 80
4 80 72 71 81
4 81 71 70 82
4 82 70 69 83
4 83 69 68 84
4 84 68 67 85
4 85 67 66 86
4 86 66 65 87
4 87 65 64 88
4 88 64 63 89
4 89 63 62 90
4 90 62 61 91
4 91 61 60 92
4 92 60 59 93
4 93 59 58 94
4 94 58 57 95
4 95 57 56 96
4 96 56 55 97
4 97 55 54 98
4 99 53 52 75
4 98 54 53 99
3 99 75 76
3 76 77 78
3 78 79 80
3 80 81 82
3 82 83 84
3 84 85 86
3 86 87 88
3 88 89 90
3 90 91 92
3 92 93 94
3 94 95 96
3 96 97 98
3 98 99 76
3 76 78 80
3 80 82 84
3 84 86 88
3 88 90 92
3 92 94 96
3 96 98 76
3 76 80 84
3 84 88 92
3 92 96 76
3 76 84 92
3 100 101 102
3 102 103 104
3 104 105 106
3 106 107 108
3 108 109 110
3 110 111 112
3 112 113 114
3 114 115 116
3 116 117 118
3 118 119 120
3 120 121 122
3 122 123 124
3 124 100 102
3 102 104 106
3 106 108 110
3 110 112 114
3 114 116 118
3 118 120 122
3 122 124 102
3 102 106 110
3 110 114 118
3 118 122 102
3 102 110 118
4 125 102 101 126
4 126 101 100 127
4 127 100 124 128
4 128 124 123 129
4 129 123 122 130
4 130 122 121 131
4 131 121 120 132
4 132 120 119 133
4 133 119 118 134
4 134 118 117 135
4 135 117 116 136
4 136 116 115 137
4 137 115 114 138
4 138 114 113 139
4 139 113 112 140
4 140 112 111 141
4 141 111 110 142
4 142 110 109 143
4 143 109 108 144
4 144 108 107 145
4 145 107 106 146
4 146 106 105 147
4 147 105 104 148
4 149 103 102 125
4 148 104 103 149
3 149 125 126
3 126 127 128
3 128 129 130
3 130 131 132
3 132 133 134
3 134 135 136
3 136 137 138
3 138 139 140
3 140 141 142
3 142 143 144
3 144 145 146
3 146 147 148
3 148 149 126
3 126 128 130
3 130 132 134
3 134 136 138
3 138 140 142
3 142 144 146
3 146 148 126
3 126 130 134
3 134 138 142
3 142 146 126
3 126 134 142
3 150 151 152
3 152 153 154
3 154 155 156
3 156 157 158
3 158 159 160
3 160 161 162
3 162 163 164
3 164 165 166
3 166 167 168
3 168 169 170
3 170 171 172
3 172 173 174
3 174 150 152
3 152 154 156
3 156 158 160
3 160 162 164
3 164 166 168
3 168 170 172
3 172 174 152
3 152 156 160
3 160 164 168
3 168 172 152
3 152 160 168
4 175 152 151 176
4 176 151 150 177
4 177 150 174 178
4 178 174 173 179
4 179 173 172 180
4 180 172 171 181
4 181 171 170 182
4 182 170 169 183
4 183 169 168 184
4 184 168 167 185
4 185 167 166 186
4 186 166 165 187
4 187 165 164 188
4 188 164 163 189
4 189 163 162 190
4 190 162 161 191
4 191 161 160 192
4 192 160 159 193
4 193 159 158 194
4 194 158 157 195
4 195 157 156 196
4 196 156 155 197
4 197 155 154 198
4 199 153 152 175
4 198 154 153 199
3 199 175 176
3 176 177 178
3 178 179 180
3 180 181 182
3 182 183 184
3 184 185 186
3 186 187 188
3 188 189 190
3 190 191 192
3 192 193 194
3 194 195 196
3 196 197 198
3 198 199 176
3 176 178 180
3 180 182 184
3 184 186 188
3 188 190 192
3 192 194 196
3 196 198 176
3 176 180 184
3 184 188 192
3 192 196 176
3 176 184 192
4 200 201 202 203
4 201 204 205 202
4 204 206 207 205
4 206 200 203 207
4 203 202 205 207
4 206 204 201 200
3 208 209 210
3 210 211 212
3 212 213 214
3 214 215 216
3 216 217 218
3 218 219 220
3 220 221 222
3 222 223 224
3 224 225 226
3 226 227 228
3 228 229 230
3 230 231 232
3 232 208 210
3 210 212 214
3 214 216 218
3 218 220 222
3 222 224 226
3 226 228 230
3 230 232 210
3 210 214 218
3 218 222 226
3 226 230 210
3 210 218 226
4 233 210 209 234
4 234 209 208 235
4 235 208 232 236
4 236 232 231 237
4 237 231 230 238
4 238 230 229 239
4 239 229 228 240
4 240 228 227 241
4 241 227 226 242
4 242 226 225 243
4 243 225 224 244
4 244 224 223 245
4 245 223 222 246
4 246 222 221 247
4 247 221 220 248
4 248 220 219 249
4 249 219 218 250
4 250 218 217 251
4 251 217 216 252
4 252 216 215 253
4 253 215 214 254
4 254 214 213 255
4 255 213 212 256
4 257 211 210 233
4 256 212 211 257
3 257 233 234
3 234 235 236
3 236 237 238
3 238 239 240
3 240 241 242
3 242 243 244
3 244 245 246
3 246 247 248
3 248 249 250
3 250 251 252
3 252 253 254
3 254 255 256
3 256 257 234
3 234 236 238
3 238 240 242
3 242 244 246
3 246 248 250
3 250 252 254
3 254 256 234
3 234 238 242
3 242 246 250
3 250 254 234
3 234 242 250
3 258 259 260
3 260 261 262
3 262 263 264
3 264 265 266
3 266 267 268
3 268 269 270
3 270 271 272
3 272 273 274
3 274 275 276
3 276 277 278
3 278 279 280
3 280 281 282
3 282 258 260
3 260 262 264
3 264 266 268
3 268 270 272
3 272 274 276
3 276 278 280
3 280 282 260
3 260 264 268
3 268 272 276
3 276 280 260
3 260 268 276
4 283 260 259 284
4 284 259 258 285
4 285 258 282 286
4 286 282 281 287
4 287 281 280 288
4 288 280 279 289
4 289 279 278 290
4 290 278 277 291
4 291 277 276 292
4 292 276 275 293
4 293 275 274 294
4 294 274 273 295
4 295 273 272 296
4 296 272 271 297
4 297 271 270 298
4 298 270 269 299
4 299 269 268 300
4 300 268 267 301
4 301 267 266 302
4 302 266 265 303
4 303 265 264 304
4 304 264 263 305
4 305 263 262 306
4 307 261 260 283
4 306 262 261 307
3 307 283 284
3 284 285 286
3 286 287 288
3 288 289 290
3 290 291 292
3 292 293 294
3 294 295 296
3 296 297 298
3 298 299 300
3 300 301 302
3 302 303 304
3 304 305 306
3 306 307 284
3 284 286 288
3 288 290 292
3 292 294 296
3 296 298 300
3 300 302 304
3 304 306 284
3 284 288 292
3 292 296 300
3 300 304 284
3 284 292 300
3 308 309 310
3 310 311 312
3 312 313 314
3 314 315 316
3 316 317 318
3 318 319 320
3 320 321 322
3 322 323 324
3 324 325 326
3 326 327 328
3 328 329 330
3 330 331 332
3 332 308 310
3 310 312 314
3 314 316 318
3 318 320 322
3 322 324 326
3 326 328 330
3 330 332 310
3 310 314 318
3 318 322 326
3 326 330 310
3 310 318 326
4 333 310 309 334
4 334 309 308 335
4 335 308 332 336
4 336 332 331 337
4 337 331 330 338
4 338 330 329 339
4 339 329 328 340
4 340 328 327 341
4 341 327 326 342
4 342 326 325 343
4 343 325 324 344
4 344 324 323 345
4 345 323 322 346
4 346 322 321 347
4 347 321 320 348
4 348 320 319 349
4 349 319 318 350
4 350 318 317 351
4 351 317 316 352
4 352 316 315 353
4 353 315 314 354
4 354 314 313 355
4 355 313 312 356
4 357 311 310 333
4 356 312 311 357
3 357 333 334
3 334 335 336
3 336 337 338
3 338 339 340
3 340 341 342
3 342 343 344
3 344 345 346
3 346 347 348
3 348 349 350
3 350 351 352
3 352 353 354
3 354 355 356
3 356 357 334
3 334 336 338
3 338 340 342
3 342 344 346
3 346 348 350
3 350 352 354
3 354 356 334
3 334 338 342
3 342 346 350
3 350 354 334
3 334 342 350
