ply
format ascii 1.0
comment Created by Blender 2.77 (sub 0) - www.blender.org, source file: ''
element vertex 8
property float x
property float y
property float z
property uchar red
property uchar green
property uchar blue
element face 6
property list uchar uint vertex_indices
end_header
-1.000000 1.000000 -1.000000 255 0 0
-1.000000 -1.000000 -1.000000 255 0 0
-1.000000 -1.000000 1.000000 255 0 0
-1.000000 1.000000 1.000000 255 0 0
1.000000 1.000000 1.000000 255 0 0
1.000000 1.000000 -1.000000 255 0 0
1.000000 -1.000000 1.000000 255 0 0
1.000000 -1.000000 -1.000000 255 0 0
4 0 1 2 3
4 3 4 5 0
4 4 6 7 5
4 1 7 6 2
4 1 0 5 7
4 6 4 3 2
