ply
format ascii 1.0
comment Created by Blender 2.77 (sub 0) - www.blender.org, source file: 'moebius_3D_surface.blend'
element vertex 285
property float x
property float y
property float z
property float s
property float t
element face 224
property list uchar uint vertex_indices
end_header
-6.007496 -14.173321 7.023652 0.079463 1.000000
-4.815195 -15.183040 7.114706 0.059597 1.000000
-5.052616 -15.813335 3.557353 0.059597 0.750000
-6.414159 -14.952937 3.511826 0.079463 0.750000
-4.027886 14.715342 -0.405161 0.464227 0.250000
-5.970295 14.127750 -0.606173 0.446340 0.250000
-7.152230 17.502182 -1.212345 0.446340 0.000000
-4.830162 18.228191 -0.810322 0.464227 0.000000
3.225610 11.202492 -0.000000 0.535773 0.500000
1.622816 11.475611 -0.000000 0.517887 0.500000
2.028250 15.073842 0.202894 0.517887 0.250000
4.027886 14.715342 0.405161 0.535773 0.250000
2.423335 7.689642 -0.405161 0.535773 0.750000
1.217383 7.877378 -0.202894 0.517887 0.750000
-11.173722 11.079015 -1.195215 0.392700 0.250000
-12.622815 9.688874 -1.384908 0.374823 0.250000
-14.993704 12.056531 -2.769815 0.374823 0.000000
-13.308910 13.754054 -2.390429 0.392700 0.000000
15.830128 4.690158 1.925441 0.678773 0.250000
14.965595 6.470507 1.750589 0.660913 0.250000
17.654802 8.157349 3.501177 0.660913 0.000000
18.597731 6.020010 3.850882 0.678773 0.000000
10.251926 7.321218 -0.000000 0.625177 0.500000
9.038535 8.403975 -0.000000 0.607300 0.500000
11.173722 11.079015 1.195215 0.607300 0.250000
12.622815 9.688874 1.384908 0.625177 0.250000
8.605308 -0.957821 -4.513124 0.714492 1.000000
8.099963 -0.088995 -4.188601 0.696632 1.000000
10.893053 0.884567 -2.094301 0.696632 0.750000
11.371636 -0.330824 -2.256562 0.714492 0.750000
3.364847 -16.119377 -7.184507 0.960269 1.000000
4.815195 -15.183040 -7.114706 0.940403 1.000000
5.052616 -15.813335 -3.557353 0.940403 0.750000
3.467254 -16.557632 -3.592254 0.960269 0.750000
6.820822 -15.732553 -0.000000 0.920537 0.500000
8.158610 -14.914418 -0.000000 0.904687 0.500000
8.754874 -15.799615 3.458789 0.904687 0.250000
7.227485 -16.512171 3.511826 0.920537 0.250000
-5.290038 -16.443630 0.000000 0.059597 0.500000
-6.820822 -15.732553 0.000000 0.079463 0.500000
12.610217 -12.910794 3.257751 0.857136 0.250000
13.762579 -11.584849 3.167903 0.839315 0.250000
15.245099 -12.523183 6.335806 0.839315 0.000000
13.846129 -13.895920 6.515502 0.857136 0.000000
1.778825 -17.106733 -3.613209 0.980134 0.750000
3.569662 -16.995886 -0.000000 0.960269 0.500000
1.797232 -17.331446 -0.000000 0.980134 0.500000
0.000000 -17.405521 -0.000000 1.000000 0.500000
1.815639 -17.556160 3.613209 0.980134 0.250000
0.000000 -17.405521 3.617854 1.000000 0.250000
6.222123 2.038670 -3.140462 0.643053 1.000000
5.510149 2.585906 -2.769815 0.625177 1.000000
7.881038 4.953562 -1.384908 0.625177 0.750000
8.779330 4.074418 -1.570231 0.643053 0.750000
5.857691 6.395049 -1.001812 0.589423 0.750000
4.755012 6.946795 -0.805265 0.571547 0.750000
6.290765 10.132724 -0.000000 0.571547 0.500000
7.712854 9.345334 -0.000000 0.589423 0.500000
5.290038 -16.443630 -0.000000 0.940403 0.500000
5.527459 -17.073927 3.557353 0.940403 0.250000
3.672070 -17.434141 3.592254 0.960269 0.250000
15.668184 -8.418275 2.951894 0.803672 0.250000
16.343439 -6.667236 2.829811 0.785851 0.250000
18.547550 -7.176184 5.659622 0.785851 0.000000
17.647963 -9.116376 5.903788 0.803672 0.000000
10.294921 2.030455 -1.925441 0.678773 0.750000
13.062524 3.360307 -0.000000 0.678773 0.500000
13.686142 1.858129 -0.000000 0.696632 0.500000
10.375408 -13.055565 -0.000000 0.872987 0.500000
11.374304 -11.925669 -0.000000 0.857136 0.500000
11.379717 -14.042467 3.335178 0.872987 0.250000
-6.903347 5.728936 1.195215 0.392700 0.750000
-7.881038 4.953562 1.384908 0.374823 0.750000
-10.251926 7.321218 -0.000000 0.374823 0.500000
-9.038535 8.403975 -0.000000 0.392700 0.500000
-3.672070 -17.434141 -3.592254 0.039731 0.250000
-1.815639 -17.556160 -3.613209 0.019866 0.250000
-1.834046 -17.780872 -7.226418 0.019866 0.000000
-3.774477 -17.872395 -7.184507 0.039731 0.000000
0.000000 -17.405521 -3.617854 1.000000 0.750000
-1.621059 4.176793 0.810322 0.464227 1.000000
-2.424491 4.004456 1.212345 0.446340 1.000000
-3.606426 7.378887 0.606173 0.446340 0.750000
-2.423335 7.689642 0.405161 0.464227 0.750000
7.728033 -12.134953 -6.802446 0.888837 1.000000
8.366792 -11.081760 -6.670355 0.872987 1.000000
9.371099 -12.068663 -3.335178 0.872987 0.750000
8.520394 -13.087513 -3.401223 0.888837 0.750000
10.105118 -14.992635 3.401223 0.888837 0.250000
10.897479 -15.945195 6.802446 0.888837 0.000000
9.351139 -16.684813 6.917578 0.904687 0.000000
-7.227485 -16.512171 -3.511826 0.079463 0.250000
-5.527459 -17.073927 -3.557353 0.059597 0.250000
-5.764880 -17.704222 -7.114706 0.059597 0.000000
-7.634148 -17.291786 -7.023652 0.079463 0.000000
12.384026 -15.029370 6.670355 0.872987 0.000000
-4.788361 10.753319 -0.000000 0.446340 0.500000
-3.225610 11.202492 -0.000000 0.464227 0.500000
-5.857691 6.395049 1.001812 0.410577 0.750000
-7.712854 9.345334 -0.000000 0.410577 0.500000
-6.222123 2.038670 3.140462 0.356947 1.000000
-6.897970 1.409981 3.501177 0.339087 1.000000
-9.587178 3.096823 1.750589 0.339087 0.750000
-8.779330 4.074418 1.570231 0.356947 0.750000
-0.000000 -17.405521 -7.235707 0.000000 0.000000
-0.000000 -17.405521 -3.617854 0.000000 0.250000
-11.708630 -7.022073 2.951894 0.196328 0.750000
-11.329398 -8.380581 3.064691 0.178506 0.750000
-13.065845 -9.222217 0.000000 0.178506 0.500000
-13.688407 -7.720174 0.000000 0.196328 0.500000
16.904293 0.923169 2.256562 0.714492 0.250000
16.479231 2.831691 2.094301 0.696632 0.250000
19.272320 3.805253 4.188601 0.696632 0.000000
19.670622 1.550166 4.513124 0.714492 0.000000
11.336538 6.110166 -0.000000 0.643053 0.500000
13.893746 8.145914 1.570231 0.643053 0.250000
14.802291 -10.063851 3.064691 0.821494 0.250000
16.538736 -10.905486 6.129382 0.821494 0.000000
6.966082 -13.144023 -6.917578 0.904687 1.000000
7.562346 -14.029221 -3.458789 0.904687 0.750000
-0.811949 4.279146 0.405788 0.482113 1.000000
-1.217383 7.877378 0.202894 0.482113 0.750000
1.834046 -17.780872 7.226418 0.980134 0.000000
0.000000 -17.405521 7.235707 1.000000 0.000000
-14.965595 6.470507 -1.750589 0.339087 0.250000
-15.830128 4.690158 -1.925441 0.321227 0.250000
-18.597731 6.020010 -3.850882 0.321227 0.000000
-17.654802 8.157349 -3.501177 0.339087 0.000000
-0.000000 4.312827 0.000000 0.500000 1.000000
-0.000000 7.940491 -0.000000 0.500000 0.750000
-17.063997 -2.934676 -2.559228 0.249829 0.250000
-16.810749 -4.830348 -2.698771 0.231989 0.250000
-19.211693 -5.105750 -5.397542 0.231989 0.000000
-19.628263 -2.938568 -5.118456 0.249829 0.000000
4.768159 3.053896 -2.390429 0.607300 1.000000
4.002528 3.444764 -2.003625 0.589423 1.000000
6.903347 5.728936 -1.195215 0.607300 0.750000
-3.467254 -16.557632 3.592254 0.039731 0.750000
-3.569662 -16.995886 0.000000 0.039731 0.500000
12.280060 -10.646516 -0.000000 0.839315 0.500000
-15.668184 -8.418275 -2.951894 0.196328 0.250000
-14.802291 -10.063851 -3.064691 0.178506 0.250000
-16.538736 -10.905486 -6.129382 0.178506 0.000000
-17.647963 -9.116376 -5.903788 0.196328 0.000000
-11.336538 6.110166 -0.000000 0.356947 0.500000
-13.893746 8.145914 -1.570231 0.356947 0.250000
-12.276386 4.783665 -0.000000 0.339087 0.500000
9.587178 3.096823 -1.750589 0.660913 0.750000
12.276386 4.783665 -0.000000 0.660913 0.500000
14.993704 12.056531 2.769815 0.625177 0.000000
16.450954 10.181663 3.140462 0.643053 0.000000
16.810749 -4.830348 2.698771 0.768011 0.250000
17.063997 -2.934676 2.559228 0.750171 0.250000
19.628263 -2.938568 5.118456 0.750171 0.000000
19.211693 -5.105750 5.397542 0.768011 0.000000
13.308910 13.754054 2.390429 0.607300 0.000000
-7.826519 13.318652 -0.805265 0.428453 0.250000
-9.568018 12.295619 -1.001812 0.410577 0.250000
-11.423181 15.245903 -2.003625 0.410577 0.000000
-9.362272 16.504580 -1.610530 0.428453 0.000000
11.329398 -8.380581 -3.064691 0.821494 0.750000
11.708630 -7.022073 -2.951894 0.803672 0.750000
13.688407 -7.720174 -0.000000 0.803672 0.500000
13.065845 -9.222217 -0.000000 0.821494 0.500000
-1.622816 11.475611 -0.000000 0.482113 0.500000
-12.280060 -10.646516 0.000000 0.160685 0.500000
-11.374304 -11.925669 0.000000 0.142864 0.500000
-12.610217 -12.910794 -3.257751 0.142864 0.250000
-13.762579 -11.584849 -3.167903 0.160685 0.250000
-10.294921 2.030455 1.925441 0.321227 0.750000
-13.062524 3.360307 -0.000000 0.321227 0.500000
17.097160 -1.008019 2.411689 0.732331 0.250000
19.785200 -0.708992 4.823379 0.732331 0.000000
-9.731100 -5.140392 5.659622 0.214149 1.000000
-9.728852 -6.323972 5.903788 0.196328 1.000000
-11.935212 -5.649340 2.829811 0.214149 0.750000
-16.904293 0.923169 -2.256562 0.285508 0.250000
-17.097160 -1.008019 -2.411689 0.267669 0.250000
-19.785200 -0.708992 -4.823379 0.267669 0.000000
-19.670622 1.550166 -4.513124 0.285508 0.000000
9.312756 -14.040073 -0.000000 0.888837 0.500000
6.007496 -14.173321 -7.023652 0.920537 1.000000
6.414159 -14.952937 -3.511826 0.920537 0.750000
-10.797541 -9.708181 3.167903 0.160685 0.750000
-10.138391 -10.940543 3.257751 0.142864 0.750000
14.409118 -1.307047 -0.000000 0.732331 0.500000
14.137965 0.296173 -0.000000 0.714492 0.500000
9.568018 12.295619 1.001812 0.589423 0.250000
11.423181 15.245903 2.003625 0.589423 0.000000
-10.105118 -14.992635 -3.401223 0.111163 0.250000
-8.754874 -15.799615 -3.458789 0.095313 0.250000
-9.351139 -16.684813 -6.917578 0.095313 0.000000
-10.897479 -15.945195 -6.802446 0.111163 0.000000
-10.375408 -13.055565 0.000000 0.127013 0.500000
-11.379717 -14.042467 -3.335178 0.127013 0.250000
5.970295 14.127750 0.606173 0.553660 0.250000
4.830162 18.228191 0.810322 0.535773 0.000000
7.152230 17.502182 1.212345 0.553660 0.000000
-13.686142 1.858129 -0.000000 0.303368 0.500000
-16.479231 2.831691 -2.094301 0.303368 0.250000
-1.797232 -17.331446 0.000000 0.019866 0.500000
-9.607918 -4.004139 5.397542 0.231989 1.000000
-12.008861 -4.279541 2.698771 0.231989 0.750000
10.138391 -10.940543 -3.257751 0.857136 0.750000
10.797541 -9.708181 -3.167903 0.839315 0.750000
-12.384026 -15.029370 -6.670355 0.127013 0.000000
-13.846129 -13.895920 -6.515502 0.142864 0.000000
-11.935466 -2.926893 2.559228 0.249829 0.750000
-14.409804 -4.554945 0.000000 0.231989 0.500000
-14.499732 -2.930784 0.000000 0.249829 0.500000
-14.139325 -6.158288 0.000000 0.214149 0.500000
9.371200 -2.923001 -5.118456 0.750171 1.000000
9.033034 -1.905101 -4.823379 0.732331 1.000000
11.721076 -1.606074 -2.411689 0.732331 0.750000
11.935466 -2.926893 -2.559228 0.750171 0.750000
-11.371636 -0.330824 2.256562 0.285508 0.750000
-11.721076 -1.606074 2.411689 0.267669 0.750000
-14.409118 -1.307047 0.000000 0.267669 0.500000
-14.137965 0.296173 0.000000 0.285508 0.500000
-9.592952 -7.538946 6.129382 0.178506 1.000000
2.424491 4.004456 -1.212345 0.553660 1.000000
1.621059 4.176793 -0.810322 0.535773 1.000000
3.606426 7.378887 -0.606173 0.553660 0.750000
-9.371200 -2.923001 5.118456 0.249829 1.000000
9.731100 -5.140392 -5.659622 0.785851 1.000000
9.607918 -4.004139 -5.397542 0.768011 1.000000
12.008861 -4.279541 -2.698771 0.768011 0.750000
11.935212 -5.649340 -2.829811 0.785851 0.750000
-3.219258 3.760867 1.610530 0.428453 1.000000
-4.755012 6.946795 0.805265 0.428453 0.750000
-8.099963 -0.088995 4.188601 0.303368 1.000000
-8.605308 -0.957821 4.513124 0.285508 1.000000
-10.893053 0.884567 2.094301 0.303368 0.750000
14.499732 -2.930784 -0.000000 0.750171 0.500000
14.409804 -4.554945 -0.000000 0.768011 0.500000
-16.343439 -6.667236 -2.829811 0.214149 0.250000
-19.272320 3.805253 -4.188601 0.303368 0.000000
-7.562346 -14.029221 3.458789 0.095313 0.750000
-8.158610 -14.914418 0.000000 0.095313 0.500000
8.902478 -9.955419 -6.515502 0.857136 1.000000
9.315021 -8.769848 -6.335806 0.839315 1.000000
9.728852 -6.323972 -5.903788 0.803672 1.000000
14.139325 -6.158288 -0.000000 0.785851 0.500000
7.634148 -17.291786 7.023652 0.920537 0.000000
5.764880 -17.704222 7.114706 0.940403 0.000000
-9.315021 -8.769848 6.335806 0.160685 1.000000
-0.000000 11.568156 -0.000000 0.500000 0.500000
9.592952 -7.538946 -6.129382 0.821494 1.000000
-1.778825 -17.106733 3.613209 0.019866 0.750000
-0.000000 -17.405521 3.617854 0.000000 0.750000
-0.000000 -17.405521 0.000000 0.000000 0.500000
-9.312756 -14.040073 0.000000 0.111163 0.500000
3.774477 -17.872395 7.184507 0.960269 0.000000
2.433683 18.672075 0.405788 0.517887 0.000000
1.760418 -16.882019 -7.226418 0.980134 1.000000
7.826519 13.318652 0.805265 0.571547 0.250000
9.362272 16.504580 1.610530 0.571547 0.000000
-6.290765 10.132724 -0.000000 0.428453 0.500000
-4.768159 3.053896 2.390429 0.392700 1.000000
-5.510149 2.585906 2.769815 0.374823 1.000000
-6.966082 -13.144023 6.917578 0.095313 1.000000
0.000000 -17.405521 -7.235707 1.000000 1.000000
-3.364847 -16.119377 7.184507 0.039731 1.000000
-2.028250 15.073842 -0.202894 0.482113 0.250000
-2.433683 18.672075 -0.405788 0.482113 0.000000
-1.760418 -16.882019 7.226418 0.019866 1.000000
-0.000000 -17.405521 7.235707 0.000000 1.000000
-9.371099 -12.068663 3.335178 0.127013 0.750000
-15.245099 -12.523183 -6.335806 0.160685 0.000000
-8.366792 -11.081760 6.670355 0.127013 1.000000
-7.728033 -12.134953 6.802446 0.111163 1.000000
-8.520394 -13.087513 3.401223 0.111163 0.750000
4.788361 10.753319 -0.000000 0.553660 0.500000
-0.000000 15.195820 -0.000000 0.500000 0.250000
-7.527317 0.700603 3.850882 0.321227 1.000000
-16.450954 10.181663 -3.140462 0.356947 0.000000
-0.000000 18.823484 -0.000000 0.500000 0.000000
-8.902478 -9.955419 6.515502 0.142864 1.000000
0.811949 4.279146 -0.405788 0.517887 1.000000
3.219258 3.760867 -1.610530 0.571547 1.000000
7.527317 0.700603 -3.850882 0.678773 1.000000
-4.002528 3.444764 2.003625 0.410577 1.000000
-18.547550 -7.176184 -5.659622 0.214149 0.000000
6.897970 1.409981 -3.501177 0.660913 1.000000
-9.033034 -1.905101 4.823379 0.267669 1.000000
4 0 1 2 3
4 4 5 6 7
4 8 9 10 11
4 12 13 9 8
4 14 15 16 17
4 18 19 20 21
4 22 23 24 25
4 26 27 28 29
4 30 31 32 33
4 34 35 36 37
4 3 2 38 39
4 40 41 42 43
4 44 33 45 46
4 47 46 48 49
4 50 51 52 53
4 54 55 56 57
4 45 58 59 60
4 61 62 63 64
4 28 65 66 67
4 68 69 40 70
4 71 72 73 74
4 75 76 77 78
4 79 44 46 47
4 80 81 82 83
4 84 85 86 87
4 36 88 89 90
4 91 92 93 94
4 88 70 95 89
4 83 82 96 97
4 98 71 74 99
4 100 101 102 103
4 104 77 76 105
4 106 107 108 109
4 110 111 112 113
4 58 34 37 59
4 114 22 25 115
4 41 116 117 42
4 118 84 87 119
4 120 80 83 121
4 49 48 122 123
4 124 125 126 127
4 128 120 121 129
4 130 131 132 133
4 134 135 54 136
4 2 137 138 38
4 69 139 41 40
4 140 141 142 143
4 73 144 145 15
4 103 102 146 144
4 65 147 148 66
4 115 25 149 150
4 151 152 153 154
4 25 24 155 149
4 46 45 60 48
4 156 157 158 159
4 160 161 162 163
4 121 83 97 164
4 165 166 167 168
4 102 169 170 146
4 171 110 113 172
4 173 174 106 175
4 176 177 178 179
4 180 68 70 88
4 181 118 119 182
4 183 184 166 165
4 185 186 110 171
4 24 187 188 155
4 52 136 23 22
4 189 190 191 192
4 166 193 194 167
4 195 11 196 197
4 170 198 199 125
4 138 200 76 75
4 201 173 175 202
4 203 204 139 69
4 31 181 182 32
4 167 194 205 206
4 207 202 208 209
4 202 175 210 208
4 211 212 213 214
4 215 216 217 218
4 51 134 136 52
4 174 219 107 106
4 220 221 12 222
4 223 201 202 207
4 224 225 226 227
4 81 228 229 82
4 230 231 215 232
4 194 189 192 205
4 226 214 233 234
4 5 156 159 6
4 208 210 235 131
4 86 203 69 68
4 148 114 115 19
4 199 176 179 236
4 39 38 92 91
4 237 3 39 238
4 212 26 29 213
4 238 39 91 190
4 239 240 204 203
4 232 215 218 198
4 241 224 227 161
4 161 227 242 162
4 74 73 15 14
4 214 213 185 233
4 59 37 243 244
4 72 103 144 73
4 219 245 183 107
4 139 163 116 41
4 216 207 209 217
4 129 121 164 246
4 62 151 154 63
4 240 247 160 204
4 248 249 250 200
4 251 238 190 189
4 60 59 244 252
4 11 10 253 196
4 254 30 33 44
4 125 199 236 126
4 255 195 197 256
4 96 257 156 5
4 258 259 72 71
4 116 61 64 117
4 57 56 255 187
4 177 130 133 178
4 260 0 3 237
4 213 29 186 185
4 261 254 44 79
4 23 57 187 24
4 1 262 137 2
4 263 4 7 264
4 187 255 256 188
4 265 266 249 248
4 184 267 193 166
4 107 183 165 108
4 92 75 78 93
4 217 209 130 177
4 147 53 114 148
4 141 168 268 142
4 204 160 163 139
4 269 270 271 267
4 190 91 94 191
4 193 251 189 194
4 55 222 272 56
4 9 246 273 10
4 146 170 125 124
4 70 40 43 95
4 53 52 22 114
4 108 165 168 141
4 242 234 151 62
4 270 260 237 271
4 186 67 111 110
4 101 274 169 102
4 99 74 14 157
4 15 145 275 16
4 136 54 57 23
4 218 217 177 176
4 273 263 264 276
4 222 12 8 272
4 274 230 232 169
4 277 269 267 184
4 278 128 129 13
4 234 233 152 151
4 135 279 55 54
4 145 124 127 275
4 10 273 276 253
4 137 248 200 138
4 38 138 75 92
4 27 280 65 28
4 163 162 61 116
4 228 281 98 229
4 247 241 161 160
4 262 265 248 137
4 271 237 238 251
4 35 180 88 36
4 32 182 34 58
4 272 8 11 195
4 131 235 282 132
4 119 87 180 35
4 233 185 171 152
4 235 140 143 282
4 85 239 203 86
4 281 258 71 98
4 259 100 103 72
4 164 97 4 263
4 210 109 140 235
4 227 226 234 242
4 283 50 53 147
4 169 232 198 170
4 229 98 99 257
4 33 32 58 45
4 56 272 195 255
4 279 220 222 55
4 37 36 90 243
4 48 60 252 122
4 209 208 131 130
4 182 119 35 34
4 231 284 216 215
4 29 28 67 186
4 280 283 147 65
4 221 278 13 12
4 267 271 251 193
4 152 171 172 153
4 97 96 5 4
4 162 242 62 61
4 144 146 124 145
4 157 14 17 158
4 257 99 157 156
4 245 277 184 183
4 67 66 18 111
4 111 18 21 112
4 168 167 206 268
4 19 115 150 20
4 225 211 214 226
4 200 250 105 76
4 175 106 109 210
4 198 218 176 199
4 66 148 19 18
4 87 86 68 180
4 82 229 257 96
4 246 164 263 273
4 284 223 207 216
4 109 108 141 140
4 13 129 246 9
