ply
format ascii 1.0
comment Created by Blender 2.77 (sub 0) - www.blender.org, source file: ''
element vertex 32
property float x
property float y
property float z
element face 24
property list uchar uint vertex_indices
end_header
0.912766 -0.915567 0.644532
0.912766 -1.715567 0.644532
0.912766 -1.715567 1.444532
0.912766 -0.915567 1.444532
1.712766 -0.915567 1.444532
1.712766 -0.915567 0.644532
1.712766 -1.715567 1.444532
1.712766 -1.715567 0.644532
2.259175 -1.303709 1.607217
2.412289 -0.609646 1.240022
2.214296 -0.937541 0.537681
2.061182 -1.631605 0.904876
3.172128 -0.834947 1.131004
2.974134 -1.162842 0.428662
3.019014 -1.529010 1.498199
2.821020 -1.856906 0.795857
0.512783 -0.260608 1.417940
0.512783 0.539392 1.417940
0.512783 0.539392 0.617940
0.512783 -0.260608 0.617940
1.312783 0.539392 1.417940
1.312783 0.539392 0.617940
1.312783 -0.260608 1.417940
1.312783 -0.260608 0.617940
0.722454 -0.924217 3.009235
0.906560 -0.546431 2.328513
0.463178 -1.070525 1.917737
0.279071 -1.448311 2.598459
1.546495 -1.018240 2.239745
1.103113 -1.542334 1.828969
1.362389 -1.396026 2.920467
0.919006 -1.920120 2.509691
4 0 1 2 3
4 3 4 5 0
4 4 6 7 5
4 1 7 6 2
4 1 0 5 7
4 6 4 3 2
4 8 9 10 11
4 9 12 13 10
4 12 14 15 13
4 14 8 11 15
4 11 10 13 15
4 14 12 9 8
4 16 17 18 19
4 17 20 21 18
4 20 22 23 21
4 22 16 19 23
4 19 18 21 23
4 22 20 17 16
4 24 25 26 27
4 25 28 29 26
4 28 30 31 29
4 30 24 27 31
4 27 26 29 31
4 30 28 25 24
